<?xml version="1.0" encoding="UTF-8"?>
<svg xmlns="http://www.w3.org/2000/svg" viewBox="0 0 160 160">
  <defs>
    <style>
      .cls-1 {
        fill: #3f3f3f;
      }

      .cls-2 {
        fill: #a9a9a9;
      }

      .cls-3 {
        fill: #7c7c7c;
      }

      .cls-4 {
        fill: gray;
      }

      .cls-5 {
        fill: #545454;
      }

      .cls-6 {
        fill: #d2d2d2;
      }

      .cls-7 {
        fill: #727272;
      }

      .cls-8 {
        fill: #e6e6e6;
      }

      .cls-9 {
        fill: #9a9a9a;
      }

      .cls-10 {
        fill: #828282;
      }

      .cls-11 {
        fill: #767676;
      }

      .cls-12 {
        fill: #7a7a7a;
      }

      .cls-13 {
        fill: #cecece;
      }

      .cls-14 {
        fill: #171717;
      }

      .cls-15 {
        fill: #0d0d0d;
      }

      .cls-16 {
        fill: #919191;
      }

      .cls-17 {
        fill: #b4b4b4;
      }

      .cls-18 {
        fill: #212121;
      }

      .cls-19 {
        fill: #4d4d4d;
      }

      .cls-20 {
        fill: #ccc;
      }

      .cls-21 {
        fill: #606060;
      }

      .cls-22 {
        fill: #3d3d3d;
      }

      .cls-23 {
        fill: #575757;
      }

      .cls-24 {
        fill: #636363;
      }

      .cls-25 {
        fill: #b7b7b7;
      }

      .cls-26 {
        fill: #7d7d7d;
      }

      .cls-27 {
        fill: #666;
      }

      .cls-28 {
        fill: #9f9f9f;
      }

      .cls-29 {
        fill: #565656;
      }

      .cls-30 {
        fill: silver;
      }

      .cls-31 {
        fill: #b8b8b8;
      }

      .cls-32 {
        fill: #959595;
      }

      .cls-33 {
        fill: #4a4a4a;
      }

      .cls-34 {
        fill: #5e5e5e;
      }

      .cls-35 {
        fill: #a2a2a2;
      }

      .cls-36 {
        fill: #b3b3b3;
      }

      .cls-37 {
        fill: #ababab;
      }

      .cls-38 {
        fill: #8d8d8d;
      }

      .cls-39 {
        fill: #fcfcfc;
      }

      .cls-40 {
        fill: #c2c2c2;
      }

      .cls-41 {
        fill: #6e6e6e;
      }

      .cls-42 {
        fill: #787878;
      }

      .cls-43 {
        fill: #333;
      }

      .cls-44 {
        fill: #adadad;
      }

      .cls-45 {
        fill: #a78bfa;
        font-family: Montserrat-Bold, Montserrat;
        font-size: 91.884px;
        font-weight: 700;
      }

      .cls-46 {
        fill: #d3d3d3;
      }

      .cls-47 {
        fill: #dadada;
      }

      .cls-48 {
        fill: #d1d1d1;
      }

      .cls-49 {
        fill: #1a1a1a;
      }

      .cls-50 {
        fill: #999;
      }
    </style>
  </defs>
  <g id="Ebene_2" data-name="Ebene 2">
    <text class="cls-45" transform="translate(27.718 148.644)"><tspan x="0" y="0">25</tspan></text>
  </g>
  <g id="Ebene_1" data-name="Ebene 1">
    <g id="Generatives_Objekt" data-name="Generatives Objekt">
      <g>
        <g>
          <g>
            <path class="cls-25" d="M55.151,5.889l.563.851"/>
            <g>
              <path class="cls-17" d="M69.313,3.102l4.956-.834"/>
              <path class="cls-5" d="M75.542,2.838c-.088.287-.209.595-.286.848"/>
            </g>
          </g>
          <path class="cls-35" d="M90.542,3.451c-1.321-.14-2.351-.149-3.68-.011-.584.06-1.99.927-2.55.841"/>
        </g>
        <g>
          <path class="cls-30" d="M75.626,4.576l.475.387,1.124,2.693c-1.719-2.081-2.502-3.542-5.794-2.849-5.471,1.152,2.101,6.559,4.65,6.525-1.432.151-2.484-.587-3.678-.578-.928-.582-3.143-1.582-3.672-2.559-.805-1.487-1.098-4.15,1.146-4.384l-.996,1.837c.48-1.325,2.513-2.32,3.828-2.253.206.011,2.141.801,2.403,1.14"/>
          <path class="cls-29" d="M72.403,10.754c-2.137.018-5.216,1.774-4.825,4.231h-.283c-.738-2.559-.051-2.436.579-4.245.154-.441.374.177.571-1.414.022-.181-.032-.389.002-.566.006-.031.438.019.285-.565.529.977,2.744,1.977,3.672,2.559Z"/>
          <path class="cls-30" d="M84.312,4.281c.561.086,1.966-.781,2.55-.841,2.328.159,4.126,1.025,3.951,3.692-.101,1.541-.552,1.366-1.423,2.543-2.269.356-4.886,2.856-6.797,1.111l4.106-.553c1.287-1.567,2.961-1.509,3.55-3.81-1.207-1.623-4.378-2.043-6.082-1.293-1.31.577-1.275,2.825-2.7,3.671"/>
          <path class="cls-19" d="M77.491,13.318c1.512.547.556,1.574,3.677.861.037.462-.06.958-.004,1.415-1.385,1.456-.271,3.857.125,5.379-1.529-1.086-1.415-2.949-1.967-4.535-.329,1.533.173,2.913-.862,4.243l-.271-3.964c-.064,2.369-2.214,6.66-4.685,4.515-.887-1.539-1.757-2.263-.553-4.248.032.207.031.315.282.284-.197.819-.668,2.249.275,2.69l1.433-5.798c1.146-1.264,1.078-1.374,2.55-.841Z"/>
          <path class="cls-18" d="M85.674,21.552c-.708.87-.782,1.144-1.986,1.409-1.359.299-1.566.122-2.83-.292-.273-.316-.55-.857-.846-1.135-.089-.084.196-.981-.565-.285-.047.043-.276.775-.57,1.13-1.243.827-2.823.686-4.247.27-.598-.461-.772-.801-1.128-1.419,2.471,2.146,4.621-2.145,4.685-4.515l.271,3.964c1.035-1.331.534-2.71.862-4.243.552,1.586.438,3.449,1.967,4.535-.396-1.522-1.51-3.923-.125-5.379.315,2.573,1.125,6.728,4.511,5.958Z"/>
          <path class="cls-43" d="M92.228,7.419c-.226.842.521,2.898-.575,2.829-.641-.751-.892-.241-1.131-.287-.064-.012-.944-.316-1.131-.287.871-1.177,1.322-1.002,1.423-2.543l1.414.287Z"/>
          <g>
            <path class="cls-19" d="M81.184,9.083c1.008.554.981,1.311,1.41,1.703,1.911,1.745,4.528-.755,6.797-1.111.187-.029,1.068.274,1.131.287-1.528,1.393,2.144,2.625,1.4,4.816-.077.144.094.183-.285.565l-4.383-1.429c-.954.681,2.355,2.773-.854,1.696l.14.567c-.307.493.31.916.278,1.699-.029.687.131,1.855-.007,2.406-.159.636-.878.953-1.136,1.27-3.385.77-4.195-3.385-4.511-5.958-.056-.457.041-.953.004-1.415.069-.016.459-.698,1.135-.846.136.328,1.608.623,1.978,1.138,1.39,1.789,1.861,4.181,1.113,6.372,1.986-1.642.839-5.017-1.112-6.655-.968-.813-.743-1.125-1.979-.855-.254-.613.744-1.151-.136-1.699-.535,3.201-4.603,3.076-4.811-.298l.135,1.982c-1.472-.533-1.404-.423-2.55.841-.73.806-1.455,2.055-1.708,3.108-.251.031-.25-.077-.282-.284-.067-.434.166-.478-.28-.85-.769-.641-1.19.388-1.981-.148,4.092-1.083,4.111-2.516-.278-1.699l3.829-2.394-2.266.559-4.113,2.818c-.01-.017-.221.099-.282-.284-.391-2.457,2.688-4.213,4.825-4.231,1.194-.01,2.246.728,3.678.578.975-.103,1.228-2.064,2.272-2.541,1.172-.534,1.807-.27,2.83.292Z"/>
            <g>
              <path class="cls-43" d="M72.67,16.133c-.281-.036-.236.109-.284.282-1.524-.085-3.599.427-4.525-1.146l4.113-2.818,2.266-.559-3.829,2.394c4.388-.817,4.37.616.278,1.699.791.535,1.212-.493,1.981.148Z"/>
              <path class="cls-29" d="M92.207,14.212c-.114.606-.241.484-.285.565.744-2.192-2.929-3.423-1.4-4.816,1.304,1.671,2.125,1.903,1.685,4.251Z"/>
              <path class="cls-22" d="M91.637,15.343c-1.421,1.434-3.198,1.409-5.098.833l-.14-.567c3.209,1.077-.099-1.014.854-1.696l4.383,1.429Z"/>
              <path class="cls-14" d="M79.06,9.36c1.843-.805,2.668,2.317,1.407,2.835-.806.331-3.678-1.843-1.407-2.835Z"/>
              <path class="cls-42" d="M82.303,13.333c-.676.147-1.066.83-1.135.846-3.121.713-2.165-.313-3.677-.861l-.135-1.982c.208,3.374,4.276,3.499,4.811.298.881.548-.117,1.086.136,1.699Z"/>
              <path class="cls-20" d="M84.281,14.471v-.283c1.952,1.638,3.098,5.014,1.113,6.655.748-2.192.278-4.584-1.113-6.372Z"/>
              <path class="cls-30" d="M73.232,17.267c.253-1.053.978-2.303,1.708-3.108l-1.433,5.798c-.943-.441-.471-1.871-.275-2.69Z"/>
              <path class="cls-42" d="M84.281,14.188v.283c-.371-.516-1.843-.811-1.979-1.138,1.236-.269,1.011.043,1.979.855Z"/>
            </g>
          </g>
          <g>
            <path class="cls-42" d="M77.225,7.656c.333.403.608.931,1.129,1.136-1.044.476-1.298,2.438-2.272,2.541-2.549.034-10.121-5.373-4.65-6.525,3.292-.693,4.075.768,5.794,2.849Z"/>
            <path class="cls-31" d="M74.256,6.797c.053.009.568.423.281.567l-1.273-.145c.359-.006.939-.43.992-.422Z"/>
          </g>
          <g>
            <path class="cls-50" d="M82.594,10.786c-.429-.391-.402-1.149-1.41-1.703-.046-.324.212-.239.284-.282,1.425-.847,1.39-3.094,2.7-3.671,1.704-.75,4.875-.33,6.082,1.293-.589,2.301-2.263,2.244-3.55,3.81l-4.106.553Z"/>
            <path class="cls-37" d="M84.729,6.83c.527-.128,1.254-.008,1.272.712-.728.692-2.354-.449-1.272-.712Z"/>
          </g>
        </g>
        <g>
          <path class="cls-39" d="M33.126,79.983c1.432.524,4.383,1.177,5.94,1.434"/>
          <g>
            <path class="cls-30" d="M134.375,17.174c2.239.416,4.517,1.005,6.789,1.436-.027.445-.187,1.058-.711,1.13-2.121.292-7.885-1.987-10.041-2.579.243-.61,3.173-.134,3.963.012Z"/>
            <path class="cls-37" d="M25.112,17.118c.058.005.558.554,1.131.287-2.214.549-4.924,1.708-7.507,1.958-.661.064-2.156.302-2.12-.856,2.168-.275,4.358-.832,6.514-1.112.713-.093,1.109-.354,1.982-.277Z"/>
            <path class="cls-3" d="M68.881,5.648l.996-1.837c-2.244.234-1.951,2.897-1.146,4.384.153.584-.279.534-.285.565-.258-.286-.208-.695-.28-.85-1.075-2.288-2.979-.845-3.394-.86-1.24-.044-2.119-.253-3.397-.011-.854.162-1.142.491-1.417.562-1.17.302-2.222.437-3.399.839l-.561-1.7c4.347-1.288,8.843-2.863,13.315-3.639"/>
            <path class="cls-37" d="M151.037,29.397c-4.485.211-8.875-.351-13.301-.89-3.457-.421-6.869-1.32-10.185-1.73-8.702-1.074-15.017-1.922-23.777-.074-5.079,1.071-11.393,3.343-15.166,7.03-.796.778-1.506,1.005-.855,1.979-1.227-.954-2.608,1.913-2.414,2.682.254,1.012,3.003.46,2.534,4.254-.275,2.232-1.925,2.382-1.989,2.541-.025.061.854.767.847.852-.277,3.125-3.191,8.94-4.001,12.442-.384,1.659-2.208,12.14-1.597,12.874,13.368,1.907,25.589,9.15,39.327,6.066,9.402-2.11,17.932-10.145,22.56-18.329.772-1.365,1.304-2.166,1.993-3.674.986.119.504,1.745.276,2.407-3.02,8.734-14.791,19.535-23.985,21.297-12.611,2.417-22.248-2.166-33.954-4.351-14.694-2.743-26.237,4.498-40.917,4.685l-.845-1.418c.834.029,1.714.043,2.548.008,9.687-.41,20.269-5.604,30.026-6.842-.035-8.145-2.755-15.83-5.022-23.51-.136-.461.066-2.365.008-2.548-.221-.695-3.156-1.654-1.401-4.675,1.434-.145.588,1.465,1.125,2.41,1.123,1.975,4.581.543,5.382-1.257.674.836,1.734.313,2.548.008-.052.321.269.269.282.284.197.217.407.588.563.851.07.118.53,1.034.563,1.134l-.294,3.679c-1.899.378-.749-2.359-2.114-2.837-1.011-.098-.822,1.519-1.564,2.26-2.348-.246-.135-2.331-.272-3.681l-.14-.567c-1.572,1.387-2.953,2.867-2.139,5.089-1.194,1.343.805,3.277,1.117,4.816-.685,1.619.148,5.313.828,6.938.104.249.603,1.207.566.143.665-.795-.251-2.194,1.421-1.977.086.73.193,1.326.56,1.983.797,1.426.767,1.034,1.133-.28.938-1.636,1.859-4.759,1.152-6.507,1.184-.552,2.982-7.631,2.856-8.058-.157-.529-.801-.345-1.131-.428.024-.152.466-.5.568-.564,1.688-1.075,2.533-1.512,1.425-3.109-1.24-1.788-3.316-1.264-4.812-.015-.085.028-.198-.029-.283,0-.336-1.168-1.438-1.982-2.544-1.14-1.194-.929-1.717-1.317-1.973-2.837-.735-4.369,5.708-3.597,6.233-1.679.222.812-.28,1.994.133,2.831.751-1.003.382-1.773.15-2.83-.157-.718-.457-1.897-1.125-2.268,1.393-3.073,4.845-5.221,7.664-6.77l1.265,2.835c9.142-5.569,20.906-6.282,31.437-5.564,9.758.665,19.183,4.437,29.144,3.77.789,1.449-.419,2.128-.432,2.263Z"/>
            <path class="cls-37" d="M67.547,24.892c3.574,1.634,8.077,4.315,9.883,7.956-1.553.753-1.237,2.641-1.428,3.958-.059.407.52.9-.145,1.132-.06.021-.31-.665-1.274-.004-2.37-2.333-4.636-5.298-7.479-7.1-1.924-1.219-4.762-2.407-6.925-3.135-9.969-3.358-18.148-2.391-28.303-1.22-3.855.445-7.73,1.533-11.612,1.945-3.833.407-7.749.518-11.607.53.002-.137-1.448-.955-.135-2.265,12.735.087,24.291-4.28,37.093-3.848,5.289.178,10.769,1.127,15.844,2.597,3.088.894,4.495,3.74,6.088-.547Z"/>
            <path d="M20.265,28.426c.473,2.17-.946,2.406-2.276,3.673-.632-.062-1.079-.81-2.404-.574-3.728.666-.88,6.063.13,3.822.905-2.01-1.692-1.123-1.693-1.704,1.63-3.724,4.647-.081,4.954-.126.352-.051,2.651-4.97,3.537.577-.093.167-.96.761-1.135.846-3.304,1.6-2.97-2.054-3.533-1.709-.446.371.271,2.402.417,2.549-2.231,2.882-5.258,3.427-8.786,3.653-.696-3.75-.861-6.742-.817-10.476,3.859-.013,7.775-.123,11.607-.53Z"/>
            <path class="cls-16" d="M17.054,59.836c3.125,5.164,6.317,8.788,11.285,12.207,3.189,2.195,4.199,2.731,7.913,3.987,3.454,1.168,5.545,1.879,9.335,2.01l.845,1.418c-12.069.154-21.082-4.45-27.979-14.382-.499-.719-3.346-5.517-3.378-5.955-.005-.065.825-.559.852-.988.342.629.773,1.118,1.127,1.702Z"/>
            <path class="cls-18" d="M149.01,44.11c-.642,2.606-1.66,4.867-2.57,7.352-1.003-1.158-3.166-1.598-4.526-.863-1.169-.937-2.221-2.705-2.251-4.253,1.951-.115,4.276.31,4.256-3.101l5.092.865Z"/>
            <path class="cls-37" d="M59.958,7.602c-.162.807,1.898,4.188.271,3.964.308-.981.5-1.297-.418-1.983-.255.078-.656.836-.71.847-3.58.731-1.399.404-1.988,2.117-.281.817-1.078.393-1.134.421-.139-2.084-2.388-1.393-1.133.28-.152.042-1.04,1.213-2.126.843-.098-.033-.524-1.444-1.412-1.137-.459.159-.209.922-.713,1.696-.545-2.043-2.421-.747-1.134.563-.368.089-.224.182-.284.282-.105.175.214.741-.428,1.131-.032.02-.207-.339-.424-.284.285-2.56-.034-2.185-1.261-4.25,2.175.45,2.252-.769,3.684-1.404,1.672-.742,4.081-1.657,5.81-2.247,1.178-.401,2.23-.536,3.399-.839Z"/>
            <path class="cls-20" d="M55.979,12.968c-.869.445-.932.224-1.133.28-1.255-1.673.995-2.364,1.133-.28Z"/>
            <path class="cls-20" d="M50.595,14.65c-.219.337-.226.348-.568.564-.18.019-.406-.041-.566-.002-1.287-1.31.589-2.605,1.134-.563Z"/>
            <g>
              <path class="cls-50" d="M132.457,76.21c1.374,4.598-23.339,6.693-25.74,5.558"/>
              <path class="cls-50" d="M106.717,81.768c-6.952-1.109-13.724-3.002-20.651-4.168-.968-.163-1.599-.434-2.829-.575-3.621-.414-3.614-.445-7.36-.023-1.222.138-1.855.395-2.832.557-6.832,1.135-13.574,2.924-20.394,4.183-1.281-.264-2.469-.44-3.681.272-2.531-.325-5.441.048-8.208-.309-.52-.067-1.157-.199-1.697-.288-1.557-.257-4.507-.909-5.94-1.434-.034-.012.113-.467-.14-.567-.346-.137-.508.367-.709.281-.124-.053-1.221-1.556-2.261-1.139-.507-.863-1.009-.736-1.13-.853-.797-.773-1.761-.938-1.978-1.138-2.221-2.045-5.353-4.925-7.338-7.099-1.143-1.252-2.702-3.149-3.666-4.54-.978-1.411-1.731-3.023-2.534-4.537-2.02-3.809-3.436-7.613-4.775-11.904-.641-2.054-1.105-4.16-1.679-6.233-.39-1.407.042-2.204-.837-3.965.233-1.194.168-4.008-.551-4.814,1.367-1.732-1.057-2.06-1.125-2.41-.034-.172,1.445-2.177.86-3.394-.111-.23-4.371-.011-5.094-.44-.028-.073-.881.165-.563-1.134,1.326.551,3.435.125,4.812-.127l-1.119-4.391c.029-.005-.102-.496.143-.566.527-.15,1.816.329,2.124-.418.612-1.485-2.157-2.543,3.405-2.679,1.114.993,2.473,2.613,3.959,1.145,2.055,1.222.873-.579,1.559-.844.682-.264,1.959.31,2.122.29-.036,1.157,1.459.92,2.12.856,2.583-.25,5.293-1.41,7.507-1.958,1.653-.41,3.475-.62,5.099-1.116.783,1.057-.143,2.63.555,3.54.929,1.213,1.686-.351,2.406-.134.079.024.765,1.391.845,1.418,1.182.393,3.694-1.597,4.396-2.817,2.376,1.386,1.529-3.054.002-.566l-1.41-1.844c3.651-2.238,2.744.331,3.813,2.701,1.677.366,1.642-.743,2.41-1.408.074-.064,1.141.607,1.135-.987-1.006-1.436-1.325-.115-1.415-.146-.403-.138-2.176-.98-1.977-1.563l2.693-1.265c.846,2.235.754,3.828,3.529,3.125.217-.055.391.304.424.284.642-.389.323-.956.428-1.131.543.184.632-.143.85-.28.342-.216.349-.228.568-.564.503-.774.254-1.537.713-1.696.888-.308,1.314,1.103,1.412,1.137,1.085.371,1.974-.8,2.126-.843.201-.056.264.165,1.133-.28.055-.028.853.396,1.134-.421.589-1.713-1.592-1.385,1.988-2.117-.022.705.482,1.047,1.129,1.136,1.627.224-.433-3.157-.271-3.964.276-.071.564-.399,1.417-.562-.165,1.108,1.156,2.442,1.975,1.988-.118.84.702,1.857,1.413.854,1.385.093-.504-2.066.009-2.831.415.015,2.319-1.428,3.394.86-1.16.137-1.33,2.481.279,1.416-.196,1.591-.417.973-.571,1.414l-24.939,9.405c8.434.788,16.801,1.177,24.612,4.747-1.592,4.287-3,1.441-6.088.547-5.075-1.47-10.554-2.418-15.844-2.597-12.803-.432-24.358,3.935-37.093,3.848-1.313,1.31.136,2.128.135,2.265-.045,3.734.121,6.726.817,10.476.745,4.018,1.988,7.544,3.362,11.333.945,2.605,1.76,4.918,3.091,7.369-.028.429-.857.923-.852.988.033.438,2.879,5.236,3.378,5.955,6.897,9.932,15.909,14.536,27.979,14.382,14.681-.187,26.223-7.428,40.917-4.685,11.706,2.185,21.344,6.769,33.954,4.351,9.194-1.763,20.965-12.564,23.985-21.297.229-.662.711-2.288-.276-2.407.306-.669.565-1.429.856-2.12.176-.419-.493.01.004-1.274.014-.037.385-.064.568-.564.91-2.485,1.928-4.745,2.57-7.352,1.213-4.923,1.553-9.747,2.027-14.713.013-.135,1.22-.814.432-2.263-9.961.667-19.385-3.105-29.144-3.77-10.532-.718-22.295-.006-31.437,5.564l-1.265-2.835c10.343-5.682,17.131-4.272,28.04-5.291.345-.032,1.558.124,1.984-.702.22-.426-.337-.855-.28-.992.1-.24.247-.344.285-.565.005-.029.516.101.567-.14.088-.417-.852-2.879-.982-2.975-.094-.07-1.894.969-1.555-.712.164-.811.937-.11.991-.138.288-.151.012-.822.286-.848.471-.045,3.597,1.213,4.383,1.429,2.364.649,4.703,1.353,7.07,2.003,2.155.592,7.919,2.871,10.041,2.579.524-.072.684-.685.711-1.13.832.158,3.394.102,3.82.295.556.251-.734,1.858,1.555.571,2.043,1.041,2.889-.243,4.25-1.402.645,1.042,2.36.303,2.97.575.903.402-.066,2.388.84,2.833.616.303,7.301-.756,8.635-.539-.14.23-.337.728-.57,1.13l-8.493.398.127,4.671,5.521-.266c-.26.54-.547.801-.569.847-.84.563-5.034.196-5.381.974-.592,1.328.553,2.673.557,2.832.013.512-2.873,2.641,1.41,1.561-2.821,1.961-2.902,1.397-2.565,5.653-1.164,2.47-.958,6.148-2.009,8.769-.07.153-.175.571-.286.848-1.409,3.536-2.237,6.891-3.995,10.461-.178.361-.384.778-.57,1.13-1.029,1.95-2.12,3.866-3.414,5.651-2.11,2.908-5.594,6.571-8.237,9.033-.774.721-2.598,1.42-2.839,2.822-.236.049-.362-.297-.424-.284-.53.111-1.157.853-1.56,1.127-.4.272-.81.169-1.135.846-2.79-.377-1.869-1-2.15.701l-.81-.282c.002-.488.258.926-.016.703"/>
              <g>
                <path class="cls-37" d="M19.428,24.46c1.616-1.911.362-1.436-.561-1.7-.14-.04-3.089-.251-1.552-1.42.358-.273,1.261.367,1.414.287.107-.055,1.176-1.344,1.42-1.411,3.31-.908,3.25,3.018.847.852-.361.301.041,3.581-1.567,3.392Z"/>
                <path class="cls-37" d="M26.804,19.105l.562,1.417c-.098.041-1.635,1.187-1.702,1.269-.094.115.283,2.492-.854,1.554.509-1.202.045-1.816-1.129-1.136-.796-2.754,1.155-1.593,1.279-1.694,1.11-.908-.36-.893,1.844-1.41Z"/>
                <path class="cls-30" d="M30.76,21.382c.011-1.526-.894-1.616-1.697-.571-.132-.171-1.618-.322-1.697-.288l-.562-1.417c1.378-.323,2.708.035,3.542-1.121.056.625,1.265,3.084,1.264,3.259-.01.984-.811.12-.85.139Z"/>
                <path class="cls-31" d="M64.772,7.051c-.513.765,1.377,2.923-.009,2.831.388-1.475-1.227-2.173-1.413-.854-.82.454-2.141-.88-1.975-1.988,1.278-.243,2.157-.033,3.397.011Z"/>
                <path class="cls-30" d="M145.676,24.002c-1.671-1.644-2.77,1.186-.57,1.13-.05.046-.201.485-.426.565l-.989-.428c-.754-2.636-.754-4.073,2.416-3.248.721,1.133-.365,1.802-.431,1.98Z"/>
                <path class="cls-37" d="M10.938,23.868c-.673-1.179-1.006-1.025-1.698-.005-.207-1.223-.085-3.088,1.848-2.542.597.47.938,1.783.7,2.408-.109.287-.78.065-.85.139Z"/>
                <path class="cls-30" d="M150.204,24.3c-.559-1.028-.855-1.012-1.697-.288-.026-.079-.985-.541-.561-1.559l2.124-.418c1.19.96.715,1.237.135,2.265Z"/>
                <path class="cls-30" d="M15.186,23.032c-.763-.33-1.071.557-1.134.563-3.589.331.582-4.873,1.134-.563Z"/>
                <path class="cls-30" d="M135.771,23.123c-.099-1.299-1.03-.892-1.415-.004-.919-2.197,1.451-3.495,1.985-1.268.491,2.044-.5,1.2-.57,1.272Z"/>
                <path class="cls-30" d="M130.112,22.539c1.092-.099.795-1.872-.562-1.417.006-.118-.693-.811.429-1.414,1.387-.226,1.994,4.189.133,2.831Z"/>
                <path class="cls-30" d="M140.866,23.421c-.861-.606-1.542-.243-1.418.845-.858-1.267-.644-3.119,1.706-2.401-.309.521-.205,1.023-.288,1.556Z"/>
                <path class="cls-13" d="M145.676,24.002c-.09.247.096.838-.003.991-.175.271-.512.089-.567.14-2.2.055-1.102-2.775.57-1.13Z"/>
                <path class="cls-8" d="M123.189,18.554c1.009.002.628,2.29-.29,2.264-1.03-.029-.316-2.265.29-2.264Z"/>
                <path class="cls-20" d="M150.204,24.3c-.658,1.165-.413.285-1.56,1.127-.332-.303-.016-1.049-.137-1.416.842-.723,1.138-.74,1.697.288Z"/>
                <path class="cls-13" d="M140.866,23.421c-.232,1.491-.421,2.318-1.418.845-.125-1.087.556-1.45,1.418-.845Z"/>
                <path class="cls-20" d="M30.76,21.382c-.399.197-.711.375-1.134.563l-.564-.568c.055-.14-.051-.497.002-.566.803-1.044,1.707-.955,1.697.571Z"/>
                <path class="cls-36" d="M64.763,9.881c-.71,1.003-1.531-.014-1.413-.854.186-1.319,1.8-.621,1.413.854Z"/>
                <path class="cls-20" d="M39.544,18.295c.057-.1-.055-.473.002-.566,1.527-2.488,2.375,1.952-.002.566Z"/>
                <path class="cls-20" d="M15.186,23.032c.248,1.938.032.852-.287,1.414l-.566-.002c-.015-.045-.866-.202-.28-.85.063-.006.371-.893,1.134-.563Z"/>
                <path class="cls-20" d="M19.428,24.46c-.834-.098-.881-1.079-.561-1.7.922.264,2.177-.211.561,1.7Z"/>
                <path class="cls-13" d="M60.229,11.566c-.647-.089-1.15-.43-1.129-1.136.054-.011.455-.769.71-.847.919.686.726,1.001.418,1.983Z"/>
                <path class="cls-20" d="M10.938,23.868c-.25.264.297.202-.568.564-.163.068-.584-.16-.567.281-.059-.106-.423-.017-.563-.851.692-1.02,1.026-1.174,1.698.005Z"/>
                <path class="cls-13" d="M135.771,23.123c-.752.772-.749,1.589-1.415-.004.385-.887,1.317-1.295,1.415.004Z"/>
                <path class="cls-36" d="M125.732,19.978c1.201-.088.774,1.527.278,1.699-.837.291-1.301-1.625-.278-1.699Z"/>
                <path class="cls-13" d="M130.112,22.539c-.176-.128-.617.013-.847-.71-.012-.036.257-.16.285-.707,1.357-.455,1.654,1.318.562,1.417Z"/>
                <path class="cls-13" d="M24.809,23.345c-1.291.148-.94-.482-1.129-1.136,1.174-.68,1.638-.066,1.129,1.136Z"/>
                <path class="cls-36" d="M68.166,7.91c.073.155.022.564.28.85-.034.177.021.385-.002.566-1.609,1.065-1.439-1.279-.279-1.416Z"/>
                <path class="cls-37" d="M133.375,20.001l-.29,2.264c-.814-.708-.488-1.731.29-2.264Z"/>
                <path class="cls-37" d="M137.901,20.865c.31-.254.939.125.705.71l-.995,1.271c.204-.516.016-1.757.289-1.981Z"/>
                <path class="cls-37" d="M128.568,18.288c.798-.358.789,1.323-.005,1.698-.686-.233-.102-1.65.005-1.698Z"/>
                <path class="cls-37" d="M29.626,21.944c-.52.231-.058,1.328-1.134.704-.173-.634.39-.812.57-1.272l.564.568Z"/>
                <path class="cls-31" d="M10.37,24.432c.275,2.653-.073,1.177-.567.281-.017-.442.404-.213.567-.281Z"/>
                <path class="cls-31" d="M14.899,24.446c-.1.177-.147.907-.428,1.131-.533-.324-.12-1.078-.138-1.133l.566.002Z"/>
                <path class="cls-24" d="M50.027,15.214c-.218.138-.307.465-.85.28.06-.1-.084-.193.284-.282.161-.039.386.02.566.002Z"/>
              </g>
            </g>
            <g>
              <path class="cls-16" d="M55.715,6.74c.086-.026.196.027.283,0l.561,1.7c-1.729.589-4.138,1.505-5.81,2.247-1.432.635-1.509,1.854-3.684,1.404,1.226,2.065,1.545,1.69,1.261,4.25-2.775.703-2.682-.89-3.529-3.125l-2.693,1.265c-.199.583,1.574,1.425,1.977,1.563l.28,1.133c-.768.665-.733,1.774-2.41,1.408-1.069-2.37-.162-4.939-3.813-2.701l1.41,1.844c-.057.093.056.467-.002.566-.702,1.22-3.214,3.21-4.396,2.817-.08-.027-.766-1.394-.845-1.418-.72-.217-1.477,1.347-2.406.134-.698-.91.228-2.483-.555-3.54"/>
              <path class="cls-13" d="M44.36,17.178l-.28-1.133c.09.031.409-1.29,1.415.146.005,1.594-1.061.923-1.135.987Z"/>
              <path class="cls-30" d="M36.142,19.983c.505-1.116-.824-2.349-1.413-.854-.143-.105-.407.299-.425.282-.176-.164-1.571-1.998-1.55-2.128,2.295-.752,5.085.561,3.388,2.7Z"/>
              <path class="cls-20" d="M36.142,19.983c-1.605.78-1.141-.654-1.413-.854.588-1.496,1.917-.262,1.413.854Z"/>
            </g>
            <path class="cls-3" d="M90.542,3.451c3.692.392,8.522,2.075,12.162,3.151-.779,3.578-5.992-1.481-7.079.827-.012-.016-.197-.198-.282-.284-.077-.077.152-.715-.139-.85-1.123-.519-2.652-.082-2.976,1.123l-1.414-.287c.174-2.667-1.624-3.533-3.951-3.692,1.329-.137,2.358-.129,3.68.011Z"/>
            <path class="cls-18" d="M137.736,28.507c-1.351,1.189-.415,1.611-.293,3.113-.712.455-.935,2.043-.999,2.828,1.533-3.839,1.881-2.716,4.389-.553-.034.176.014.383-.002.566-.103.113-.425,1.251-.995,1.412-.997.282-2.249-1.253-2.405-.432-.235,1.239,1.191,1.33,1.977,1.28-.671.395-.97,1.333-.572,1.98.732,1.191,2.003.969,2.825,1.849,2.975,3.184-1.27,7.133-2.28,5.088-.382-.773.962-1.411.146-1.556l-.432,2.263c-1.159-.009-2.271.552-3.679-.294.245-.7,1.595-5.494,1.291-5.657-.266.411-.603.256-.992.28-1.208.073-2.385.518-3.682.555l.285-.565c.935-.078,2.464-.84,2.836-1.69.913-2.086-2.193-2.725-.847-.569-1.038-.31-2.667-.307-2.825-1.707.327-.425.392-.955.571-1.414.321-.826.821-1.401.574-2.404-.416-.152-.45,1.306-.712,1.272-.28-.037-.059-.737-.139-.85-.538-2.838-2.478-4.081-5.367-3.696.591-1.225.385-1.948,1.141-2.827,3.316.409,6.728,1.309,10.185,1.73Z"/>
            <path class="cls-22" d="M44.213,64.732c-.387,1.547.43,2.685-.578,3.961-4.36,1.75,1.1,9.153,4.502,8.789l-.002.566c-.834.035-1.713.021-2.548-.008-3.79-.131-5.881-.843-9.335-2.01.032-.465-.043-.954.004-1.415,2.998,2.391,4.458-2.797.287-1.414-.041-.209-.982-1.29-1.127-1.56-.598-1.113.978-1.109-1.975-2.129.649.083.511-.084.568-.564.641.937.657.508,1.414.287,3.679-1.072.772-4.476-3.1-4.539.221-.995-.185-.913-.562-1.417,1.484-.311,1.06-1.202.289-1.981.47-.682.695-1.458,1.421-1.977,2.774,2.227,7.259,4.666,10.74,5.412Z"/>
            <path class="cls-40" d="M84.187,44.476c.33.083.974-.101,1.131.428.127.428-1.671,7.507-2.856,8.058-.821-2.03-2.412-1.627-2.832.557l-1.976-1.705c-.294-.007-.735.571-.852.847-.312-1.539-2.311-3.473-1.117-4.816,1.218,3.322,7.35,2.606,7.928-.683.324-1.84-1.598-3.233.574-2.687Z"/>
            <path class="cls-34" d="M77.964,43.324c-1.475.764-2.168,3.357-.438,4.245.459.137.558-.413.709-.564.741-.74.553-2.358,1.564-2.26,1.366.478.215,3.215,2.114,2.837,1.634-.326.611-2.701.294-3.679-.032-.1-.492-1.016-.563-1.134.128.03.53.249.565.285.955.955.906.994,2.545.857-.102.065-.544.413-.568.564-2.172-.546-.251.847-.574,2.687-.578,3.29-6.71,4.005-7.928.683-.815-2.221.567-3.702,2.139-5.089l.14.567Z"/>
            <path class="cls-9" d="M81.31,59.469c-.366,1.314-.336,1.705-1.133.28-.939-1.239.399-11.47,2.001-6.363.132.42-.657,5.326-.868,6.083Z"/>
            <path class="cls-19" d="M79.63,53.519c-.143.744-.11,3.426-.013,4.246-1.673-.217-.756,1.182-1.421,1.977-.517-2.712-1.947-5.155-.542-7.927l1.976,1.705Z"/>
            <path class="cls-36" d="M81.959,32.863c.668.371.968,1.55,1.125,2.268h-.283c-.524-1.919-6.967-2.691-6.233,1.678l-.566-.002c.19-1.317-.125-3.205,1.428-3.958.204-.099,4.331-.096,4.529.014Z"/>
            <path class="cls-27" d="M82.463,52.962c.707,1.748-.215,4.871-1.152,6.507.211-.757,1-5.664.868-6.083-1.602-5.107-2.94,5.124-2.001,6.363-.367-.657-.474-1.253-.56-1.983-.097-.82-.13-3.502.013-4.246.42-2.184,2.011-2.587,2.832-.557Z"/>
            <path class="cls-28" d="M85.042,42.78c-.403.075-.963-.031-1.415-.004-.546.032-.917-.102-1.416.279-.035-.035-.437-.255-.565-.285-.156-.263-.367-.634-.563-.851.649-1.815,5.003-.716,5.094.44-.242.307-.796.358-1.134.421Z"/>
            <path class="cls-10" d="M86.18,40.802c1.108,1.597.263,2.034-1.425,3.109-1.639.137-1.59.098-2.545-.857.499-.381.87-.247,1.416-.279-.347.927,2.013.719,1.415.004.338-.063.891-.114,1.134-.421-.091-1.156-4.445-2.255-5.094-.44-.013-.015-.334.037-.282-.284.214-.08.243-.834.286-.848.085-.029.198.029.283,0l4.812.015Z"/>
            <path class="cls-4" d="M78.196,59.742c.037,1.064-.462.105-.566-.143-.679-1.625-1.512-5.319-.828-6.938.117-.276.558-.853.852-.847-1.406,2.773.025,5.215.542,7.927Z"/>
            <path class="cls-38" d="M86.18,40.802l-4.812-.015c1.496-1.249,3.572-1.773,4.812.015Z"/>
            <path class="cls-40" d="M78.235,47.005c-.151.151-.25.701-.709.564-1.73-.888-1.037-3.48.438-4.245.137,1.35-2.077,3.434.272,3.681Z"/>
            <path class="cls-47" d="M81.913,47.582l.294-3.679c.316.978,1.34,3.353-.294,3.679Z"/>
            <path class="cls-24" d="M82.801,35.13h.283c.232,1.058.601,1.828-.15,2.831-.413-.838.089-2.019-.133-2.831Z"/>
            <path class="cls-37" d="M44.568,41.239c7.321,1.22,14.894,3.509,20.351,9.546.985,1.09,5.327,7.763,5.351,8.792.046,1.955-1.671.41-1.983.418-1.641-5.993-8.144-12.619-13.966-14.763-9.04-3.329-17.151-.61-26.18-1.213-.029-.002.094-.549-.14-.567-1.028-.077-2.083.046-3.114-.01-1.198.704,4.626,9.053,3.506,10.484-2.271-3.08-4.484-7.327-5.344-11.056,2.96-.202,6.285.306,9.2.029,4.405-.419,7.611-2.444,12.318-1.66Z"/>
            <path class="cls-50" d="M28.142,44.019c-1.338-.144-.364,2.006-.009,2.831-1.258,1.344,2.287,6.51,3.373,7.795,5.251,6.213,13.868,8.913,21.767,9.267-.073.855-3.343,1.378-3.967,1.403-1.317.052-3.779-.3-5.093-.582-3.481-.746-7.966-3.184-10.74-5.412-1.738-1.396-3.756-3.601-5.078-5.394,1.121-1.431-4.704-9.78-3.506-10.484,1.031.056,2.086-.067,3.114.01.234.018.111.565.14.567Z"/>
            <path class="cls-18" d="M31.473,65.259c2.446-.208,5.786,1.247,3.951,3.975-.757.221-.773.65-1.414-.287.246-2.067-1.352-.553-.568.564,2.953,1.02,1.377,1.016,1.975,2.129.145.27,1.086,1.351,1.127,1.56.041.206-.239.936-.287,1.414-.047.461.028.951-.004,1.415-3.714-1.256-4.724-1.793-7.913-3.987.173-.48.968-.757,1.136-1.129,2.353.306.836-.514.004-1.132-.016-.012.036-.088-.282-.284-.027-.017-.009-.447-.565-.285-.268-.247-.714-.616-1.13-.57.157-1.875,2.286-3.241,3.973-3.384Z"/>
            <path class="cls-7" d="M45.705,39.827l-1.137,1.412c-4.707-.784-7.914,1.241-12.318,1.66-2.914.277-6.239-.231-9.2-.029-.092-.398-.576-2.461-.417-2.549.989-.153,2.388.54,3.253.576,6.803.285,13.089-1.548,19.818-1.071Z"/>
            <path class="cls-44" d="M32.151,29.312c1.074.188,1.114.194,1.695,1.138-3.659-1.347-6.893,1.771-5.111,5.079.815,1.514,2.66,2.771,4.38,2.278,1.14-.326-.911-3.242,1.563-1.835-.023,2.606-2.779,2.891-4.819,2.108-1.65-.633-3.688-4.296-3.095-6.095.36-1.091.648.35.705.993.758-2.18,2.037-4.129,4.682-3.665Z"/>
            <path class="cls-32" d="M22.512,34.094c-.885-5.547-3.185-.629-3.537-.577-.307.045-3.324-3.598-4.954.126,0,.581,2.599-.306,1.693,1.704-1.01,2.241-3.858-3.155-.13-3.822,1.325-.237,1.773.512,2.404.574,1.371.135,1.176-.932,1.843-1.127,2.03-.59,3.619,1.43,2.679,3.122Z"/>
            <path class="cls-7" d="M32.324,64.695c3.871.063,6.779,3.467,3.1,4.539,1.835-2.729-1.504-4.183-3.951-3.975l.002-.566c.274-.027.572-.002.849.003Z"/>
            <path class="cls-16" d="M21.377,34.94c1.768,1.899-2.474,1.486-3.116.84-.146-.147-.862-2.178-.417-2.549.563-.345.229,3.309,3.533,1.709Z"/>
            <g>
              <path class="cls-15" d="M31.876,26.48c.708.765.803,1.856.274,2.831-2.645-.463-3.924,1.486-4.682,3.665-.056-.643-.345-2.084-.705-.993-.593,1.8,1.445,5.462,3.095,6.095-.233.457-.494,1.05-.854,1.413-1.605.641-3.231.71-3.959-1.145-.154-.393,1.008-1.57-.42-1.417-1.281.138-.328,1.365-.147,1.698.246.45.931,1.245,1.411,1.42l-.003.849c-.865-.036-2.265-.729-3.253-.576-.159.088.325,2.151.417,2.549.86,3.729,3.073,7.977,5.344,11.056,1.322,1.793,3.341,3.998,5.078,5.394-.726.52-.951,1.295-1.421,1.977-.666.967-1.936-.224-.289,1.981.377.504.783.422.562,1.417-.277-.004-.576-.029-.849-.003-.854.083-1.781.46-2.55.841.31-2.85,1.885-7.609-2.951-6.803-4.249.708-1.541,6.732.833,5.098-6.04-3.624,4.444-9.51,1.268,1.985-.306,1.106-1.502,1.663-1.141,2.969l.423.426.143-.566c.416-.046.862.323,1.13.57.04.037.03,1.165.565.285.318.196.266.272.282.284-.582.546.055,1.002-.004,1.132-.168.371-.963.649-1.136,1.129-4.968-3.419-8.16-7.043-11.285-12.207l.569-.847c.577.509,1.765.684,2.403,1.14.463-.49-.144-.538-.14-.567.062-.479-.236-.955.569-.847.685.195,3.076.03,3.822-.271,1.089-.44,3.62-4.506,1.428-4.242-1.203.145.537,1.776-1.142,3.11-4.755,3.78-6.749-3.772-3.235-6.662-.752-.201-2,1.359-2.27,1.833-.137-.035-.504-.229-.565-.285-.05-.045-.271-.267-.282-.284-1.495-2.368-1.818-2.611-4.808-1.43-.228.09-.342.253-.567.281-1.374-3.789-2.616-7.315-3.362-11.333,3.529-.225,6.556-.771,8.786-3.653.642.646,4.885,1.06,3.116-.84.175-.085,1.042-.678,1.135-.846.94-1.692-.65-3.712-2.679-3.122-.668.194-.473,1.261-1.843,1.127,1.33-1.267,2.749-1.503,2.276-3.673,3.882-.412,7.756-1.501,11.612-1.945Z"/>
              <g>
                <path class="cls-16" d="M20.454,58.714c-2.37-.674-2.512-4.272-1.396-6.232.27-.474,1.518-2.034,2.27-1.833-3.514,2.89-1.52,10.442,3.235,6.662,1.679-1.335-.061-2.965,1.142-3.11,2.192-.264-.339,3.801-1.428,4.242-.746.301-3.138.466-3.822.271Z"/>
                <path class="cls-37" d="M28.925,65.534c-.11.055-.309.511-.85.28,3.177-11.496-7.308-5.61-1.268-1.985-2.375,1.634-5.082-4.39-.833-5.098,4.836-.806,3.261,3.953,2.951,6.803Z"/>
                <path class="cls-7" d="M20.375,38.333c-.081,1.15-2.247,1.168-2.979,2.114-2.669,3.45,2.257,7.888,2.395,3.546,2.145,2.614-3.097,3.382-4.105.129-.996-3.213,1.902-5.223,4.689-5.788Z"/>
                <path class="cls-5" d="M18.21,51.914c-.604.359-.273.188-.566-.002-1.467-.951-2.309-1.489-4.242-1.428,2.99-1.181,3.313-.938,4.808,1.43Z"/>
                <path class="cls-30" d="M31.475,64.693l-.002.566c-1.688.144-3.817,1.509-3.973,3.384l-.143.566-.423-.426c-.36-1.306.836-1.862,1.141-2.969.541.231.74-.226.85-.28.769-.381,1.696-.758,2.55-.841Z"/>
                <path class="cls-37" d="M31.762,63.278c-1.647-2.204-.377-1.014.289-1.981.771.778,1.195,1.67-.289,1.981Z"/>
                <path class="cls-1" d="M29.005,39.492c-1.075,1.085-1.468,1.155-3.115.556-.48-.174-1.165-.969-1.411-1.42l.567-.281c.729,1.855,2.354,1.786,3.959,1.145Z"/>
                <path class="cls-37" d="M25.046,38.348l-.567.281c-.182-.333-1.135-1.56.147-1.698,1.428-.153.266,1.024.42,1.417Z"/>
                <path class="cls-37" d="M29.474,70.914c.059-.13-.579-.586.004-1.132.833.618,2.349,1.438-.004,1.132Z"/>
                <path class="cls-50" d="M24.569,55.33c.349.521.107,1.17-.285.565-.2-.308.111-.341.285-.565Z"/>
                <path class="cls-49" d="M29.195,69.498c-.535.88-.525-.248-.565-.285.557-.162.538.268.565.285Z"/>
              </g>
            </g>
            <g>
              <path class="cls-16" d="M95.343,7.146c-.938.526-.827,1.479-.573,2.263.529,1.631,1.13,1.28,1.416-.279.177-.963-.039-1.008-.561-1.7,1.087-2.308,6.3,2.751,7.079-.827,5.082,1.503,10.133,3.297,14.986,5.425.037.016-.118.452.14.567,1.496.665,4.997.778,5.512,2.565-.786-.216-3.912-1.474-4.383-1.429-.273.026.002.698-.286.848-.055.029-.828-.672-.991.138-.339,1.682,1.46.643,1.555.712.13.096,1.069,2.558.982,2.975-.051.241-.562.111-.567.14.648-2.734-3.067-.329-.285.565-.057.137.5.566.28.992-.426.825-1.638.669-1.984.702l-26.009-10.554c1.096.069.349-1.986.575-2.829.323-1.205,1.853-1.642,2.976-1.123.291.134.062.772.139.85Z"/>
              <g>
                <path class="cls-13" d="M119.651,18.544c-.038.222-.185.325-.285.565-2.782-.894.933-3.3.285-.565Z"/>
                <path class="cls-31" d="M114.842,17.396c.266-1.352-.383-2.083-1.413-.854-.374-1.073-.591-2.814.718-3.395.807,1.486,2.149,3.898.694,4.248Z"/>
                <path class="cls-30" d="M110.602,15.685c.31-1.706-.678-1.138-1.128-1.419-.14-.088-.727.151-.849-.144-.434-1.051,3.084-3.385,2.544,1.14-.094.219-.4.31-.567.423Z"/>
                <path class="cls-30" d="M95.625,7.429c.522.692.737.737.561,1.7-.566-1.141-.879-.339-1.416.279-.254-.783-.365-1.737.573-2.263.085.086.27.268.282.284Z"/>
                <path class="cls-13" d="M114.842,17.396c-.292.07-.628.476-.992.28-.609-.328-.311-.817-.421-1.134,1.03-1.23,1.678-.499,1.413.854Z"/>
                <path class="cls-36" d="M110.602,15.685c-.975.659-1.831-.508-1.128-1.419.45.281,1.438-.287,1.128,1.419Z"/>
                <path class="cls-6" d="M96.186,9.13c-.286,1.559-.887,1.91-1.416.279.537-.618.85-1.42,1.416-.279Z"/>
                <path class="cls-36" d="M101.133,11.126c1.268-.484,1.116,1.646.278,1.699-.89.057-.956-1.44-.278-1.699Z"/>
                <path class="cls-20" d="M105.092,12.554c.867-.276,1.278,1.634.278,1.699-.912.06-.932-1.491-.278-1.699Z"/>
                <path class="cls-48" d="M98.873,9.704c1.133-.338.784,1.63.278,1.699s-.908-1.511-.278-1.699Z"/>
              </g>
            </g>
            <path class="cls-7" d="M143.918,43.245c.021,3.41-2.304,2.985-4.256,3.101-.186.011-.379,0-.566-.002l.432-2.263c.815.145-.528.783-.146,1.556,1.01,2.045,5.256-1.904,2.28-5.088-.822-.88-2.093-.658-2.825-1.849,2.234.381,5.065,1.894,5.081,4.545Z"/>
            <path class="cls-32" d="M139.409,36.721c-.786.05-2.212-.041-1.977-1.28.156-.821,1.408.714,2.405.432.57-.161.892-1.299.995-1.412.251-.277.489-.903.851-.705.316,1.564-.713,2.866-2.274,2.965Z"/>
            <path class="cls-50" d="M140.833,33.895c-2.508-2.164-2.856-3.287-4.389.553.065-.784.287-2.372.999-2.828,1.643-1.049,3.739.454,3.39,2.275Z"/>
            <g>
              <path class="cls-15" d="M151.037,29.397c-.474,4.966-.814,9.79-2.027,14.713l-5.092-.865c-.016-2.65-2.847-4.164-5.081-4.545-.398-.647-.099-1.585.572-1.98,1.561-.099,2.59-1.401,2.274-2.965-.362-.198-.6.428-.851.705.016-.183-.032-.39.002-.566.349-1.821-1.747-3.324-3.39-2.275-.122-1.502-1.058-1.924.293-3.113,4.426.539,8.816,1.101,13.301.89Z"/>
              <path class="cls-16" d="M144.087,34.471c1.356-.631,1.653,1.483.561,1.7-1.15.228-1.334-1.34-.561-1.7Z"/>
            </g>
            <g>
              <path class="cls-22" d="M139.096,46.344c.187.001.38.013.566.002.031,1.548,1.083,3.315,2.251,4.253-.073.039-.833,1.333-.854,1.413-.747,2.909,2.498,1.672.848.286.778-1.352,3.487-2.229,3.964-.271-.497,1.284.172.854-.004,1.274-.291.691-.55,1.451-.856,2.12-.689,1.508-1.221,2.308-1.993,3.674-.336.061-.594-.12-.848-.286-1.269-.826-.628.167-1.843.843-.111.062-1.008.171-1.275.279l.004-1.132c3.101-1.68,2-6.308-.683-7.928l1.545,3.826c.34,4.693-4.494,4.674-5.95,1.963-.377-.701.572-3.134-1.41-1.703-.191.639.408.813.562,1.276-1.449-.071-.363-2.093-1.69-2.836,1.479-2.131,3.134-4.916,3.986-7.347,1.408.847,2.52.286,3.679.294Z"/>
              <g>
                <path class="cls-34" d="M146.44,51.462c-.183.5-.553.527-.568.564-.477-1.958-3.186-1.082-3.964.271-.208-.175-.55-.336-.848-.286.021-.08.781-1.373.854-1.413,1.361-.735,3.523-.294,4.526.863Z"/>
                <path class="cls-44" d="M139.058,58.799c-2.561,1.387-5.063.058-5.936-2.566-.154-.462-.753-.637-.562-1.276,1.982-1.431,1.033,1.002,1.41,1.703,1.456,2.711,6.29,2.73,5.95-1.963l-1.545-3.826c2.683,1.62,3.784,6.248.683,7.928Z"/>
                <path class="cls-26" d="M142.171,58.809c-1.179.789-2.321,1.726-3.827,1.687-.238-.578.526-.489.709-.564.267-.109,1.163-.217,1.275-.279,1.214-.677.574-1.67,1.843-.843Z"/>
                <path class="cls-37" d="M141.908,52.297c1.65,1.386-1.595,2.623-.848-.286.298-.051.64.111.848.286Z"/>
                <path class="cls-12" d="M134.68,55.672c.43-.154.621.419.281.567-.415.181-.623-.445-.281-.567Z"/>
              </g>
            </g>
            <g>
              <path class="cls-18" d="M17.644,51.912c-1.812,1.422.992,2.299.848.286.061.055.428.25.565.285-1.116,1.96-.974,5.558,1.396,6.232-.805-.108-.507.369-.569.847l-2.402-1.423c-.76-.112.079.797.139.85l-.569.847c-.354-.584-.785-1.072-1.127-1.702-1.331-2.451-2.146-4.764-3.091-7.369.225-.029.339-.191.567-.281,1.933-.061,2.775.478,4.242,1.428Z"/>
              <path class="cls-37" d="M18.21,51.914c.011.017.232.239.282.284.144,2.013-2.66,1.137-.848-.286.293.19-.038.361.566.002Z"/>
              <path class="cls-49" d="M19.885,59.562c-.004.029.603.076.14.567-.637-.456-1.825-.631-2.403-1.14-.06-.053-.899-.962-.139-.85l2.402,1.423Z"/>
              <polygon class="cls-20" points="14.956 51.621 15.096 52.046 14.671 52.186 14.53 52.044 14.956 51.621"/>
            </g>
            <path class="cls-50" d="M132.035,41.227c1.297-.037,2.474-.481,3.682-.555,1.473.465-.671,2.454-.999,2.544-.658.183-7.816.11-8.775-.027-3.539-.507-3.734-2.406-8.486-2.008-16.461,1.378-19.301,5.625-27.936,17.605-.491.681-.376.844-1.418.703,2.734-6.189,4.872-10.743,10.802-14.686,11.748-7.812,20.937-3.229,33.13-3.577Z"/>
            <path class="cls-16" d="M126.32,58.759c-7.487,7.327-17.173,7.665-26.909,5.861,1.535-1.658,3.656-.428,6.088-.547,7.564-.372,16.372-2.462,21.965-8.848,1.272-1.452,5.548-9.886,6.117-10.03.265-.067.814.276.564.568-2.294,4.934-3.786,9.044-7.825,12.997Z"/>
            <path class="cls-37" d="M109.708,30.118l1.13.57c.744,1.594,1.295,2.573-.295,3.962-1.957,1.71-6.594,1.647-5.939-1.858.445-2.381,3.422-2.035,5.103-2.673Z"/>
            <path class="cls-16" d="M55.322,42.121c8.693,3.388,14.647,10.99,16.639,20.008-7.84.347-14.653,4.288-22.655,3.185.624-.025,3.895-.548,3.967-1.403,4.361.196,7.111-1.143,11.188-2.23l-.137-1.416c1.242-.128,2.714-.235,3.964-.271.311-.009,2.029,1.537,1.983-.418-.024-1.029-4.366-7.702-5.351-8.792-5.457-6.037-13.03-8.326-20.351-9.546l1.137-1.412c3.179.226,6.651,1.139,9.617,2.294Z"/>
            <path class="cls-37" d="M54.783,33.345c-.066,1.293-1.44,2.185-2.555,2.257-1.083.07-3.8-1.143-4.239-2.136-.134-.302-.285-3.452-.131-3.539.435-.246.818.319.848.286.723-.784.318-2.068,1.988-2.258l-.996,1.837c.201.442,5.239.537,5.084,3.554Z"/>
            <path class="cls-18" d="M131.21,33.582c.049.276.038.842-.004,1.132-2.573.314-4.641-1.72-6.216-3.558.087-.259,1.14-.626,1.418-.703,2.125-.592,4.436,1.071,4.802,3.129Z"/>
            <path class="cls-30" d="M131.777,33.3c-.099-.139-.373.345-.567.281-.367-2.058-2.678-3.72-4.802-3.129-.325-.516-.222-.384.003-.849,2.889-.385,4.829.858,5.367,3.696Z"/>
            <path class="cls-5" d="M132.054,35.283c.023-.321-1.092.239-1.133.28-.136-.427.242-.542.286-.848.041-.29.053-.857.004-1.132.194.063.468-.421.567-.281.079.112-.141.813.139.85.262.034.296-1.423.712-1.272.248,1.004-.252,1.579-.574,2.404Z"/>
            <path class="cls-31" d="M135.156,38.972c-.178.024-.45-.048-.566-.002-.044-.193-.18-.404-.281-.567-1.346-2.157,1.761-1.518.847.569Z"/>
            <path class="cls-50" d="M36.256,74.615c.049-.478.328-1.208.287-1.414,4.171-1.383,2.711,3.805-.287,1.414Z"/>
            <path class="cls-50" d="M34.009,68.947c-.057.48.082.647-.568.564-.784-1.117.814-2.632.568-.564Z"/>
            <g>
              <path class="cls-2" d="M76.569,36.809c.256,1.52.778,1.908,1.973,2.837-.209.159-.746,1.414-.289,1.981-.801,1.801-4.259,3.232-5.382,1.257-.537-.944.309-2.555-1.125-2.41.252-.434,2.381-2.225,2.839-2.539.964-.661,1.214.025,1.274.004.665-.232.086-.725.145-1.132l.566.002Z"/>
              <path class="cls-38" d="M73.871,39.631c.865-.291,3.222.068,3.818,1.003-1.422-.895-4.462.819-4.673.693-.42-.251.545-1.592.854-1.696Z"/>
            </g>
            <path class="cls-30" d="M85.042,42.78c.598.715-1.762.923-1.415-.004.453-.027,1.013.08,1.415.004Z"/>
            <g>
              <path class="cls-18" d="M81.085,40.786c-.042.014-.072.768-.286.848-.814.305-1.874.828-2.548-.008-.457-.567.08-1.821.289-1.981,1.106-.842,2.208-.028,2.544,1.14Z"/>
              <path class="cls-37" d="M79.529,40.498c.176.016.674.677.28.85-.605.266-.82-.899-.28-.85Z"/>
            </g>
            <g>
              <g>
                <path class="cls-40" d="M83.688,22.961c.147,1.764-2.73.492-3.114.132-.3-.281.301-.404.284-.424,1.264.414,1.471.591,2.83.292Z"/>
                <g>
                  <path class="cls-40" d="M86.818,17.876c.033-.783-.585-1.206-.278-1.699,1.899.576,3.676.6,5.098-.833.379-.382.208-.421.285-.565.043-.081.171.04.285-.565.427,3.813-3.232,2.529-5.39,3.663Z"/>
                  <path class="cls-20" d="M67.86,15.269c.927,1.573,3.001,1.061,4.525,1.146-.468,1.684-4.301,1.305-5.091-1.431h.283c.061.384.272.268.282.285Z"/>
                  <path class="cls-21" d="M80.013,21.534l-.565-.285c.761-.696.476.201.565.285Z"/>
                </g>
              </g>
              <g>
                <path class="cls-47" d="M74.631,22.65c1.423.416,3.004.557,4.247-.27-.111.135.208,1.085-.995,1.412-2.036.553-2.226-.352-3.252-1.142Z"/>
                <g>
                  <path class="cls-48" d="M79.294,25.212c2.806-.457,3.469,4.499,1.116,5.099-3.565.909-3.617-4.692-1.116-5.099Z"/>
                  <path class="cls-23" d="M79.292,25.778c2.386-.509,3.223,4.497-.011,3.68-1.843-.466-1.253-3.41.011-3.68Z"/>
                </g>
              </g>
            </g>
            <path class="cls-18" d="M33.845,30.449c.222.361.27.222.565.426l-5.676,4.653c-1.782-3.309,1.452-6.426,5.111-5.079Z"/>
            <path class="cls-31" d="M64.324,60.266l.137,1.416c-4.077,1.087-6.827,2.425-11.188,2.23-7.899-.354-16.516-3.054-21.767-9.267-1.086-1.285-4.631-6.451-3.373-7.795,7.128,16.54,21.965,14.888,36.191,13.416Z"/>
            <g>
              <path class="cls-33" d="M103.774,26.703c.022,1.258,1.238,2.607,2.54,2.555,1.008-.04,2.951-2.231,3.394.86-1.682.638-4.658.292-5.103,2.673-.655,3.505,3.981,3.568,5.939,1.858-.066.809,1.324,4.398.976,4.815-.633.758-11.481,2.6-12.613,5.339-5.93,3.943-8.068,8.497-10.802,14.686-1.191,2.696-1.071,2.134-2.985,4.237,3.821-3.001,9.9.08,14.292.894,9.737,1.804,19.423,1.466,26.909-5.861,2.023-1.17,3.803-3.477,5.112-5.362,1.327.743.241,2.765,1.69,2.836.874,2.624,3.375,3.953,5.936,2.566l-.004,1.132c-.184.075-.947-.014-.709.564,1.506.039,2.648-.898,3.827-1.687.255.166.513.347.848.286-4.629,8.185-13.158,16.219-22.56,18.329-13.739,3.084-25.959-4.16-39.327-6.066-.611-.735,1.213-11.215,1.597-12.874.811-3.502,3.724-9.318,4.001-12.442.007-.085-.871-.791-.847-.852.065-.159,1.714-.31,1.989-2.541.468-3.794-2.28-3.242-2.534-4.254-.193-.768,1.187-3.636,2.414-2.682-.651-.973.059-1.201.855-1.979,3.773-3.687,10.087-5.958,15.166-7.03Z"/>
              <g>
                <path class="cls-30" d="M131.273,59.058c.953-.25,4.112.598,4.383,1.57.305,1.095-1.751,5.11-3.125,3.67,5.568-3.207-1.245-6.723-2.253-3.687-.719,2.167,1.621,6.318,1.955,8.498-.925-.643-.937-1.941-2.115-2.696-1.473-.944-4.172-1.174-5.66-.301-2.95,1.731.461,5.973.56,1.983,3.045,1.925-2.03,2.938-2.691.699-1.32-4.472,5.535-4.189,8.218-3.088-.464-1.656-1.737-6.004.728-6.65Z"/>
                <path class="cls-37" d="M91.141,38.553c4.797-.787,2.513,7.366-1.287,4.384.053-1.439.378-3.014,1.71-3.675l-.422-.709Z"/>
                <path class="cls-37" d="M99.545,66.885c4.011-1.025,3.786,4.846.27,4.247-1.801-.307-2.344-3.717-.27-4.247Z"/>
                <path class="cls-30" d="M102.618,34.342l-1.139,2.261c-1.569-2.67-3.608-5.461-6.925-3.135-.145-4.172,6.655-.803,8.065.874Z"/>
                <path class="cls-16" d="M85.957,67.126c3.253-1.27,3.785,4.823.272,3.681-1.194-.388-1.442-3.223-.272-3.681Z"/>
                <path class="cls-50" d="M120.755,73.178c.334-.108,1.003.078,1.415.004,1.517,1.716.146,1.888-.999,2.686-.253.176.466.547.139.708-1.582.778-2.212-2.863-.556-3.398Z"/>
                <path class="cls-11" d="M101.479,36.603l1.139-2.261c1.186,1.411,1.551,3.094-.719,3.678-.675-.287-.298-1.209-.42-1.417Z"/>
                <path class="cls-44" d="M103.772,73.126c1.371-.079,1.747,1.868.559,2.266-2.097.703-2.306-2.165-.559-2.266Z"/>
                <path class="cls-37" d="M127.018,61.875c1.495-.352,1.451,1.511.561,1.7-1.147.244-1.534-1.471-.561-1.7Z"/>
                <path class="cls-44" d="M101.357,30.092c1.316-.495,1.262,1.416.561,1.7-.99.401-1.41-1.38-.561-1.7Z"/>
                <path class="cls-31" d="M93.585,71.962c.749-.181.983,1.246.279,1.416-.749.181-.983-1.246-.279-1.416Z"/>
                <path class="cls-37" d="M128.973,70.373c.988-.292.872.932.28,1.133-.735.25-.677-1.016-.28-1.133Z"/>
                <path class="cls-38" d="M86.901,36.558c.395.054-.102.873-.286.848-.395-.054.102-.873.286-.848Z"/>
                <path class="cls-30" d="M103.046,33.211c.43-.154.621.419.281.567-.415.181-.623-.445-.281-.567Z"/>
                <polygon class="cls-30" points="131.52 70.664 131.66 71.089 131.235 71.229 131.094 71.087 131.52 70.664"/>
                <g>
                  <path class="cls-37" d="M108.6,68.046c1.667-.159,2.862,1.677,3.108,1.708.463.058,3.778-2.808,5.235.441,1.553,3.463-3.213,5.579-3.132,5.935l.847.569c-2.269,1.892-5.982.877-7.354-1.721-.952-1.801-1.761-6.639,1.295-6.931Z"/>
                  <path class="cls-41" d="M110.011,69.182c-.93,2.913-2.271,3.722.263,6.511-2.618-1.108-3.194-5.263-.263-6.511Z"/>
                  <path class="cls-50" d="M113.408,69.193c.885-.3,2.434.953,2.683,1.848l-.567.281c.288-1.268-4.036-1.479-2.116-2.13Z"/>
                </g>
                <g>
                  <path class="cls-37" d="M97.662,35.176c2.973-.328,3.143,4.909.549,5.38-3.431.622-3.272-5.079-.549-5.38Z"/>
                  <path class="cls-12" d="M96.804,38.004l1.981.289c.482,1.866-1.758,1.169-1.981-.289Z"/>
                </g>
              </g>
            </g>
            <g>
              <path class="cls-50" d="M48.136,77.482c-3.402.364-8.861-7.039-4.502-8.789,2.278-.914,3.139.94,3.819.861.141-.016,1.519-1.586,2.27-1.691,5.087-.716,3.367,9.09-1.587,9.619Z"/>
              <path class="cls-29" d="M49.436,68.994c2.44-.231,2.722,7.517-2.569,6.786-3.661-.506-6.151-6.349-1.112-6.514-.168.942-1.558.375-2.127,1.267-2.138,3.351,5.953,7.158,6.786,2.569.383-2.113-2.459-3.967-.978-4.107Z"/>
            </g>
            <g>
              <path class="cls-33" d="M74.584,37.935c-.458.314-2.587,2.105-2.839,2.539-1.755,3.021,1.18,3.979,1.401,4.675.058.183-.144,2.086-.008,2.548,2.267,7.68,4.988,15.365,5.022,23.51-9.757,1.238-20.339,6.432-30.026,6.842l.002-.566c4.953-.53,6.674-10.335,1.587-9.619-.751.106-2.129,1.675-2.27,1.691-.68.079-1.541-1.775-3.819-.861,1.009-1.276.192-2.414.578-3.961,1.315.282,3.777.634,5.093.582,8.002,1.103,14.815-2.838,22.655-3.185-1.992-9.018-7.946-16.62-16.639-20.008-2.918-3.144-5.023-1.005-3.093-6.52,1.114-.072,2.488-.963,2.555-2.257.451.144.573-.278.85-.28-.121.751.244.45.564.568.684.251.699-.003,1.416-.279-.324,1.06-4.002,3.154-.156,4.529.436-2.117,2.389-5.103,4.829-5.363,1.118-.119,2.831,1.275,2.69-.133-.298-2.974-6.344.576-7.363.968.109-.356.011-1.476.006-1.981,1.064.123.708-.873.853-1.13.475-.845,1.28-1.642,1.706-2.542,2.163.729,5.002,1.916,6.925,3.135,2.844,1.802,5.109,4.767,7.479,7.1Z"/>
              <g>
                <path class="cls-37" d="M57.614,33.354c1.018-.392,7.064-3.942,7.363-.968.141,1.408-1.571.014-2.69.133-2.44.26-4.393,3.246-4.829,5.363-3.847-1.375-.169-3.468.156-4.529Z"/>
                <path class="cls-37" d="M66.515,38.476c2.778-.994,1.486.864,1.554.996.454.882,2.967,3.51.412,4.106-3.042.709-3.9-4.409-1.966-5.101Z"/>
                <path class="cls-37" d="M58.218,66.757c3.893-.88,3.674,5.164-.295,3.962-1.688-.511-1.618-3.53.295-3.962Z"/>
                <path class="cls-50" d="M71.521,67.081c3.63-1.232,2.97,5.002-.294,3.679-1.218-.494-.759-3.321.294-3.679Z"/>
                <path class="cls-44" d="M55.085,72.975c1.746-.316,2.017,1.873.842,2.267-1.785.598-2.644-1.941-.842-2.267Z"/>
                <path class="cls-37" d="M65.562,71.875c.939.169.132,1.976-.571,1.414-.582-.466.238-1.474.571-1.414Z"/>
                <path class="cls-38" d="M72.182,36.512c.605-.266.82.899.28.85-.176-.016-.674-.677-.28-.85Z"/>
                <path class="cls-31" d="M73.516,62.842c.581-.009.986.683.281.567-.053-.009-.568-.423-.281-.567Z"/>
                <g>
                  <path class="cls-37" d="M60.864,35.062c2.881-.439,3.607,4.46,1.683,5.1-3.746,1.247-4.222-4.713-1.683-5.1Z"/>
                  <path class="cls-50" d="M60.572,37.892c.28-.158,2.179-.227,1.838.713-.538,1.482-2.976-.072-1.838-.713Z"/>
                </g>
              </g>
            </g>
            <g>
              <path class="cls-22" d="M127.551,26.777c-.756.879-.55,1.602-1.141,2.827-.224.465-.328.333-.003.849-.278.077-1.33.444-1.418.703,1.575,1.837,3.644,3.871,6.216,3.558-.044.306-.421.421-.286.848-1.497,1.475-1.792,3.072-4.678,2.533-1.455-.449,1.226-2.799-1.267-2.127-.351,4.255,4.617,3.186,6.508.728.158,1.4,1.788,1.397,2.825,1.707.101.163.237.374.281.567-1.437.571-2.307,2.296-4.39.836.066,1.029,1.316.923,2.12.856l-.285.565c-12.193.348-21.382-4.235-33.13,3.577,1.132-2.739,11.98-4.581,12.613-5.339.348-.417-1.042-4.006-.976-4.815,1.59-1.389,1.039-2.368.295-3.962-.955-2.046-3.131-4.532-4.525-1.429-1.302.052-2.518-1.297-2.54-2.555,8.76-1.848,15.076-1.001,23.777.074Z"/>
              <g>
                <path class="cls-50" d="M110.838,30.688l-1.13-.57c-.443-3.09-2.386-.9-3.394-.86,1.393-3.103,3.57-.616,4.525,1.429Z"/>
                <path class="cls-30" d="M132.054,35.283c-.178.458-.243.988-.571,1.414-1.891,2.458-6.859,3.527-6.508-.728,2.493-.672-.187,1.678,1.267,2.127,2.887.539,3.181-1.058,4.678-2.533.042-.041,1.156-.601,1.133-.28Z"/>
                <path class="cls-29" d="M135.156,38.972c-.372.85-1.901,1.612-2.836,1.69-.805.067-2.054.174-2.12-.856,2.083,1.46,2.953-.264,4.39-.836.116-.046.388.026.566.002Z"/>
                <path class="cls-31" d="M121.148,37.797c.481.003,1.08,1.002.562,1.417-.963.772-1.62-1.424-.562-1.417Z"/>
                <path class="cls-30" d="M113.237,32.96c.346-.031.9.836.846,1.135-.415.004-1.242-.666-.846-1.135Z"/>
                <path class="cls-46" d="M112.393,31.259c.349.521.107,1.17-.285.565-.2-.308.111-.341.285-.565Z"/>
                <g>
                  <path class="cls-37" d="M118.058,30.144c3.499-.78,4.039,3.063,1.684,4.534-2.165,1.353-6.405.433-4.521-2.562l1.128,1.419c.121-1.273.101-3.033,1.709-3.391Z"/>
                  <path class="cls-50" d="M118.905,30.996c1.295-.639,1.943,4.941-.149,2.406.889-.557-.173-2.247.149-2.406Z"/>
                </g>
              </g>
            </g>
            <g>
              <path class="cls-22" d="M60.179,27.7c-.426.9-1.231,1.697-1.706,2.542-.207-.718-.982-.788-1.415-.146-.258.634.559.926.562,1.276.005.506.103,1.625-.006,1.981-.718.276-.732.53-1.416.279.073-.577-.042-.573-.564-.568-.277.003-.399.424-.85.28.154-3.017-4.883-3.113-5.084-3.554l.996-1.837c-1.671.19-1.265,1.474-1.988,2.258-.03.033-.413-.532-.848-.286-.154.087-.003,3.237.131,3.539.44.993,3.156,2.206,4.239,2.136-1.929,5.515.175,3.376,3.093,6.52-2.966-1.156-6.438-2.069-9.617-2.294-6.729-.478-13.014,1.356-19.818,1.071l.003-.849c1.648.599,2.041.528,3.115-.556.359-.362.62-.956.854-1.413,2.04.783,4.796.498,4.819-2.108-2.474-1.406-.423,1.509-1.563,1.835-1.721.493-3.565-.764-4.38-2.278l5.676-4.653c-.295-.205-.342-.065-.565-.426-.581-.943-.621-.949-1.695-1.138.528-.975.434-2.067-.274-2.831,10.154-1.171,18.334-2.138,28.303,1.22Z"/>
              <g>
                <path class="cls-37" d="M58.473,30.243c-.145.257.212,1.253-.853,1.13-.003-.349-.82-.641-.562-1.276.433-.642,1.208-.572,1.415.146Z"/>
                <path class="cls-30" d="M56.198,33.632c-.321-.118-.685.183-.564-.568.522-.005.637-.009.564.568Z"/>
                <path class="cls-50" d="M51.829,27.674c.414-.051,1.899.974,1.41,1.703l-2.12-.997c-.168-.269.648-.698.71-.705Z"/>
                <path class="cls-30" d="M38.211,37.539c1.071.046.231,1.699-.288,1.697-.874-.003-.592-1.735.288-1.697Z"/>
                <path class="cls-30" d="M47.007,30.773c.492-.302.598.99.28,1.133-.523.236-.591-.942-.28-1.133Z"/>
                <path class="cls-30" d="M45.869,32.751c.43-.154.621.419.281.567-.415.181-.623-.445-.281-.567Z"/>
                <g>
                  <path class="cls-37" d="M40.216,29.903c.707-.127,2.506.942,2.684,1.565.317,1.113-.875,1.478-.148,2.123l1.278-1.27c2.132,4.489-7.167,3.17-5.657-1.433.505-.1,1.508-.925,1.843-.985Z"/>
                  <path class="cls-12" d="M39.646,31.316c.735-.067,1.477,3.902-.43,1.839l.43-1.839Z"/>
                </g>
              </g>
            </g>
          </g>
        </g>
      </g>
    </g>
  </g>
</svg>